<svg width="20" height="20" viewBox="0 0 20 20" fill="none" xmlns="http://www.w3.org/2000/svg">
<path d="M2.8069 0C1.98 0.00381 1.19566 0.3671 0.657969 0.99532C0.213569 1.51456 -0.037941 2.17697 0.00466899 2.85909C0.273259 7.15824 2.04992 11.3803 5.33479 14.6652C8.6197 17.9501 12.8418 19.7267 17.1409 19.9953C17.823 20.0379 18.4854 19.7864 19.0047 19.342C19.6329 18.8043 19.9962 18.02 20 17.1931V13.6179L14.5682 12.2578L10.9853 14.4543C10.1211 13.849 8.8404 12.7033 8.0685 11.9315C7.2967 11.1596 6.15099 9.8789 5.54568 9.0147L7.74223 5.43176L6.38208 0H2.8069Z" fill="white"/>
</svg>
