<svg width="24" height="24" viewBox="0 0 24 24" fill="none" xmlns="http://www.w3.org/2000/svg">
<path fill-rule="evenodd" clip-rule="evenodd" d="M9.88691 12.7813C10.3456 12.3467 10.3456 11.6163 9.88691 11.1818L4.46509 6.04535C4.16439 5.76048 4.15156 5.28578 4.43643 4.98508C4.7213 4.68438 5.19601 4.67155 5.4967 4.95642L10.9185 10.0929C12.0017 11.119 12.0017 12.844 10.9185 13.8702L5.4967 19.0066C5.19601 19.2915 4.72131 19.2787 4.43643 18.978C4.15156 18.6773 4.16439 18.2026 4.46509 17.9177L9.88691 12.7813Z" fill="black"/>
<path fill-rule="evenodd" clip-rule="evenodd" d="M17.9238 12.7813C18.3824 12.3467 18.3824 11.6163 17.9238 11.1818L12.502 6.04535C12.2013 5.76048 12.1884 5.28578 12.4733 4.98508C12.7582 4.68438 13.2329 4.67155 13.5336 4.95642L18.9554 10.0929C20.0385 11.119 20.0386 12.844 18.9554 13.8702L13.5336 19.0066C13.2329 19.2915 12.7582 19.2787 12.4733 18.978C12.1884 18.6773 12.2013 18.2026 12.502 17.9177L17.9238 12.7813Z" fill="black"/>
</svg>
